<svg width="32" height="32" viewBox="0 0 32 32" fill="none" xmlns="http://www.w3.org/2000/svg">
<path fill-rule="evenodd" clip-rule="evenodd" d="M27.1539 2.83244C26.7178 1.72252 25.1498 1.72252 24.7137 2.83244L24.143 4.28472L22.6969 4.8572C21.591 5.29495 21.591 6.86284 22.6969 7.30059L24.143 7.87308L24.7137 9.32535C25.1498 10.4353 26.7178 10.4353 27.1539 9.32536L27.7246 7.87308L29.1707 7.30059C30.2766 6.86285 30.2766 5.29495 29.1707 4.8572L27.7246 4.28472L27.1539 2.83244ZM25.9338 3.37319L26.4867 4.78044C26.6197 5.11855 26.8866 5.38703 27.225 5.52097L28.6345 6.07889L27.225 6.63683C26.8866 6.77077 26.6197 7.03924 26.4867 7.37735L25.9338 8.78461L25.3809 7.37735C25.2479 7.03924 24.981 6.77077 24.6426 6.63683L23.2331 6.07889L24.6426 5.52097C24.981 5.38703 25.2479 5.11855 25.3809 4.78044L25.9338 3.37319ZM21.9974 10.5957C21.5613 9.48583 19.9934 9.48583 19.5573 10.5957L19.3511 11.1201L18.8295 11.3266C17.7237 11.7644 17.7237 13.3323 18.8295 13.77L19.3511 13.9765L19.5573 14.5009C19.9934 15.6108 21.5613 15.6108 21.9974 14.5009L22.2034 13.9765L22.7251 13.77C23.831 13.3323 23.831 11.7644 22.7251 11.3266L22.2034 11.1201L21.9974 10.5957ZM20.7773 11.1365L20.9657 11.6158C21.0986 11.9539 21.3655 12.2224 21.7039 12.3564L22.1889 12.5483L21.7039 12.7403C21.3655 12.8742 21.0986 13.1427 20.9657 13.4808L20.7773 13.9601L20.589 13.4808C20.4561 13.1427 20.1891 12.8742 19.8507 12.7403L19.3658 12.5483L19.8507 12.3564C20.1891 12.2224 20.4561 11.9539 20.589 11.6158L20.7773 11.1365Z" fill="white" stroke="white" stroke-width="0.00064"/>
<path fill-rule="evenodd" clip-rule="evenodd" d="M14.6898 3.73551C8.49425 4.38969 3.66663 9.63112 3.66663 16.0001C3.66663 22.8115 9.18845 28.3334 16 28.3334C22.3689 28.3334 27.6104 23.5058 28.2645 17.3102C26.4956 19.5559 23.7501 21.0001 20.6666 21.0001C15.3278 21.0001 11 16.6722 11 11.3334C11 8.24992 12.4442 5.50448 14.6898 3.73551ZM1.66663 16.0001C1.66663 8.084 8.08388 1.66675 16 1.66675C16.9554 1.66675 17.4338 2.42843 17.5157 3.03511C17.5946 3.61872 17.3789 4.36095 16.708 4.76631C14.4836 6.11048 13 8.54917 13 11.3334C13 15.5675 16.4325 19.0001 20.6666 19.0001C23.4509 19.0001 25.8896 17.5165 27.2337 15.2921C27.639 14.6211 28.3813 14.4054 28.9649 14.4843C29.5716 14.5662 30.3333 15.0446 30.3333 16.0001C30.3333 23.9162 23.9161 30.3334 16 30.3334C8.08388 30.3334 1.66663 23.9162 1.66663 16.0001Z" fill="white" stroke="white" stroke-width="0.00064"/>
</svg>
