<svg width="32" height="32" viewBox="0 0 32 32" fill="none" xmlns="http://www.w3.org/2000/svg">
<path d="M9.7126 13.7777C9.46693 14.4728 9.33325 15.2208 9.33325 16C9.33325 19.6819 12.318 22.6667 15.9999 22.6667C19.6818 22.6667 22.6666 19.6819 22.6666 16C22.6666 12.3181 19.6818 9.33333 15.9999 9.33333C15.2207 9.33333 14.4727 9.46701 13.7777 9.71268" stroke="#1E1E1E" stroke-width="2.048" stroke-linecap="round"/>
<path d="M16 2.66667V5.33333" stroke="#1E1E1E" stroke-width="2.048" stroke-linecap="round"/>
<path d="M16 26.6667V29.3333" stroke="#1E1E1E" stroke-width="2.048" stroke-linecap="round"/>
<path d="M5.33329 16H2.66663" stroke="#1E1E1E" stroke-width="2.048" stroke-linecap="round"/>
<path d="M29.3333 16H26.6666" stroke="#1E1E1E" stroke-width="2.048" stroke-linecap="round"/>
<path d="M26.3704 5.63021L23.4077 8.33899" stroke="#1E1E1E" stroke-width="2.048" stroke-linecap="round"/>
<path d="M5.62952 5.63021L8.5922 8.33899" stroke="#1E1E1E" stroke-width="2.048" stroke-linecap="round"/>
<path d="M8.59237 23.4076L5.62939 26.3705" stroke="#1E1E1E" stroke-width="2.048" stroke-linecap="round"/>
<path d="M26.3704 26.3697L23.4077 23.4068" stroke="#1E1E1E" stroke-width="2.048" stroke-linecap="round"/>
</svg>
